<svg xmlns="http://www.w3.org/2000/svg" xmlns:v="https://svgstorm.com"
viewBox = "0 0 575 120"
width="575"
height="120">
<g fill="None" fill-opacity="0.0" stroke="#000000" stroke-opacity="0.00" stroke-width="0.3"><path d="
M 0.00 120.00 
L 575.00 120.00
L 575.00 0.00
L 0.00 0.00
L 0.00 120.00
M 51.00 12.00 
C 63.08 13.96 77.77 27.35 66.75 38.75 C 55.73 50.15 39.46 47.47 26.00 47.00 C 12.54 46.53 -1.65 31.49 8.75 20.75 C 19.16 10.02 36.92 9.71 51.00 12.00
M 173.00 52.00 
C 169.33 52.00 165.67 52.00 162.00 52.00
C 163.16 40.30 144.87 34.03 138.75 43.75 C 132.63 53.47 133.27 67.92 137.77 78.23 C 142.27 88.54 163.17 84.78 162.00 72.00
C 165.67 72.00 169.33 72.00 173.00 72.00
C 174.91 92.17 144.19 101.25 131.77 88.23 C 119.35 75.21 119.06 49.71 131.25 36.25 C 143.44 22.79 175.28 30.62 173.00 52.00
M 224.00 30.00 
C 244.12 34.17 248.11 68.01 236.75 83.75 C 225.38 99.48 194.69 95.46 191.02 72.98 C 187.36 50.49 196.17 24.24 224.00 30.00
M 275.00 31.00 
C 282.75 45.29 292.33 59.32 301.00 73.00
C 301.00 59.00 301.00 45.00 301.00 31.00
C 304.67 31.00 308.33 31.00 312.00 31.00
C 312.00 51.67 312.00 72.33 312.00 93.00
C 298.95 97.08 295.42 83.20 289.75 75.25 C 284.07 67.30 280.02 58.48 274.00 51.00
C 274.00 65.00 274.00 79.00 274.00 93.00
C 270.33 93.00 266.67 93.00 263.00 93.00
C 263.00 72.33 263.00 51.67 263.00 31.00
C 267.00 31.00 271.00 31.00 275.00 31.00
M 342.00 31.00 
C 347.10 45.88 351.26 61.66 357.00 76.00
C 362.78 61.62 367.57 46.12 372.00 31.00
C 376.33 31.00 380.67 31.00 385.00 31.00
C 377.93 51.73 369.90 72.18 363.00 93.00
C 359.00 93.00 355.00 93.00 351.00 93.00
C 344.58 72.09 336.58 51.59 329.00 31.00
C 333.33 31.00 337.67 31.00 342.00 31.00
M 443.00 31.00 
C 443.00 34.00 443.00 37.00 443.00 40.00
C 433.00 40.00 423.00 40.00 413.00 40.00
C 413.00 45.33 413.00 50.67 413.00 56.00
C 421.67 56.00 430.33 56.00 439.00 56.00
C 439.00 59.33 439.00 62.67 439.00 66.00
C 430.33 66.00 421.67 66.00 413.00 66.00
C 413.00 72.00 413.00 78.00 413.00 84.00
C 423.00 84.00 433.00 84.00 443.00 84.00
C 443.00 87.00 443.00 90.00 443.00 93.00
C 429.33 93.00 415.67 93.00 402.00 93.00
C 402.00 72.33 402.00 51.67 402.00 31.00
C 415.67 31.00 429.33 31.00 443.00 31.00
M 495.00 66.00 
C 498.90 75.24 504.65 83.83 509.00 93.00
C 492.27 98.12 490.37 79.15 484.00 69.00
C 480.33 69.00 476.67 69.00 473.00 69.00
C 473.00 77.00 473.00 85.00 473.00 93.00
C 469.00 93.00 465.00 93.00 461.00 93.00
C 461.00 72.33 461.00 51.67 461.00 31.00
C 473.66 31.98 490.83 27.62 500.75 36.25 C 510.67 44.88 506.87 62.37 495.00 66.00
M 569.00 31.00 
C 569.00 34.00 569.00 37.00 569.00 40.00
C 562.67 40.00 556.33 40.00 550.00 40.00
C 550.00 57.67 550.00 75.33 550.00 93.00
C 546.00 93.00 542.00 93.00 538.00 93.00
C 538.00 75.33 538.00 57.67 538.00 40.00
C 531.67 40.00 525.33 40.00 519.00 40.00
C 519.00 37.00 519.00 34.00 519.00 31.00
C 535.67 31.00 552.33 31.00 569.00 31.00
M 47.00 52.00 
C 45.39 57.07 38.71 60.02 39.00 66.00
C 24.90 65.82 1.69 61.15 5.00 42.00
C 16.46 51.74 32.43 53.96 47.00 52.00
M 80.00 47.00 
C 103.51 50.82 114.78 83.19 99.08 101.08 C 83.38 118.97 51.79 115.67 42.69 92.31 C 33.60 68.94 53.63 42.72 80.00 47.00
M 37.00 70.00 
C 36.05 74.15 35.77 78.54 36.00 83.00
C 22.63 83.49 1.56 77.45 5.00 60.00
C 14.17 66.96 25.23 70.59 37.00 70.00
M 37.00 88.00 
C 37.19 92.78 40.08 96.75 42.00 101.00
C 27.01 102.05 2.16 97.80 5.00 78.00
C 14.30 84.21 25.24 88.38 37.00 88.00 Z"/>
</g>
<g fill="None" fill-opacity="0.0" stroke="#3D5DD1" stroke-opacity="0.95" stroke-width="0.3"><path d="
M 51.00 12.00 
C 36.92 9.71 19.16 10.02 8.75 20.75 C -1.65 31.49 12.54 46.53 26.00 47.00 C 39.46 47.47 55.73 50.15 66.75 38.75 C 77.77 27.35 63.08 13.96 51.00 12.00 Z"/>
</g>
<g fill="None" fill-opacity="0.0" stroke="#3E5DD0" stroke-opacity="0.90" stroke-width="0.3"><path d="
M 173.00 52.00 
C 175.28 30.62 143.44 22.79 131.25 36.25 C 119.06 49.71 119.35 75.21 131.77 88.23 C 144.19 101.25 174.91 92.17 173.00 72.00
C 169.33 72.00 165.67 72.00 162.00 72.00
C 163.17 84.78 142.27 88.54 137.77 78.23 C 133.27 67.92 132.63 53.47 138.75 43.75 C 144.87 34.03 163.16 40.30 162.00 52.00
C 165.67 52.00 169.33 52.00 173.00 52.00 Z"/>
</g>
<g fill="None" fill-opacity="0.0" stroke="#3E5DD0" stroke-opacity="0.91" stroke-width="0.3"><path d="
M 224.00 30.00 
C 196.17 24.24 187.36 50.49 191.02 72.98 C 194.69 95.46 225.38 99.48 236.75 83.75 C 248.11 68.01 244.12 34.17 224.00 30.00
M 219.00 39.00 
C 238.19 42.27 234.57 87.54 214.00 84.00 C 193.43 80.46 198.27 35.47 219.00 39.00 Z"/>
</g>
<g fill="None" fill-opacity="0.0" stroke="#3E5DD1" stroke-opacity="0.95" stroke-width="0.3"><path d="
M 275.00 31.00 
C 271.00 31.00 267.00 31.00 263.00 31.00
C 263.00 51.67 263.00 72.33 263.00 93.00
C 266.67 93.00 270.33 93.00 274.00 93.00
C 274.00 79.00 274.00 65.00 274.00 51.00
C 280.02 58.48 284.07 67.30 289.75 75.25 C 295.42 83.20 298.95 97.08 312.00 93.00
C 312.00 72.33 312.00 51.67 312.00 31.00
C 308.33 31.00 304.67 31.00 301.00 31.00
C 301.00 45.00 301.00 59.00 301.00 73.00
C 292.33 59.32 282.75 45.29 275.00 31.00 Z"/>
</g>
<g fill="None" fill-opacity="0.0" stroke="#3E5DD0" stroke-opacity="0.92" stroke-width="0.3"><path d="
M 342.00 31.00 
C 337.67 31.00 333.33 31.00 329.00 31.00
C 336.58 51.59 344.58 72.09 351.00 93.00
C 355.00 93.00 359.00 93.00 363.00 93.00
C 369.90 72.18 377.93 51.73 385.00 31.00
C 380.67 31.00 376.33 31.00 372.00 31.00
C 367.57 46.12 362.78 61.62 357.00 76.00
C 351.26 61.66 347.10 45.88 342.00 31.00 Z"/>
</g>
<g fill="None" fill-opacity="0.0" stroke="#3E5DD1" stroke-opacity="0.95" stroke-width="0.3"><path d="
M 443.00 31.00 
C 429.33 31.00 415.67 31.00 402.00 31.00
C 402.00 51.67 402.00 72.33 402.00 93.00
C 415.67 93.00 429.33 93.00 443.00 93.00
C 443.00 90.00 443.00 87.00 443.00 84.00
C 433.00 84.00 423.00 84.00 413.00 84.00
C 413.00 78.00 413.00 72.00 413.00 66.00
C 421.67 66.00 430.33 66.00 439.00 66.00
C 439.00 62.67 439.00 59.33 439.00 56.00
C 430.33 56.00 421.67 56.00 413.00 56.00
C 413.00 50.67 413.00 45.33 413.00 40.00
C 423.00 40.00 433.00 40.00 443.00 40.00
C 443.00 37.00 443.00 34.00 443.00 31.00 Z"/>
</g>
<g fill="None" fill-opacity="0.0" stroke="#3E5DD0" stroke-opacity="0.92" stroke-width="0.3"><path d="
M 495.00 66.00 
C 506.87 62.37 510.67 44.88 500.75 36.25 C 490.83 27.62 473.66 31.98 461.00 31.00
C 461.00 51.67 461.00 72.33 461.00 93.00
C 465.00 93.00 469.00 93.00 473.00 93.00
C 473.00 85.00 473.00 77.00 473.00 69.00
C 476.67 69.00 480.33 69.00 484.00 69.00
C 490.37 79.15 492.27 98.12 509.00 93.00
C 504.65 83.83 498.90 75.24 495.00 66.00
M 473.00 60.00 
C 473.00 53.33 473.00 46.67 473.00 40.00
C 481.48 39.50 494.22 38.72 494.00 50.00 C 493.78 61.28 481.57 60.39 473.00 60.00 Z"/>
</g>
<g fill="None" fill-opacity="0.0" stroke="#3E5CD0" stroke-opacity="0.92" stroke-width="0.3"><path d="
M 569.00 31.00 
C 552.33 31.00 535.67 31.00 519.00 31.00
C 519.00 34.00 519.00 37.00 519.00 40.00
C 525.33 40.00 531.67 40.00 538.00 40.00
C 538.00 57.67 538.00 75.33 538.00 93.00
C 542.00 93.00 546.00 93.00 550.00 93.00
C 550.00 75.33 550.00 57.67 550.00 40.00
C 556.33 40.00 562.67 40.00 569.00 40.00
C 569.00 37.00 569.00 34.00 569.00 31.00 Z"/>
</g>
<g fill="None" fill-opacity="0.0" stroke="#000000" stroke-opacity="0.00" stroke-width="0.3"><path d="
M 219.00 39.00 
C 198.27 35.47 193.43 80.46 214.00 84.00 C 234.57 87.54 238.19 42.27 219.00 39.00 Z"/>
</g>
<g fill="None" fill-opacity="0.0" stroke="#000000" stroke-opacity="0.00" stroke-width="0.3"><path d="
M 473.00 60.00 
C 481.57 60.39 493.78 61.28 494.00 50.00 C 494.22 38.72 481.48 39.50 473.00 40.00
C 473.00 46.67 473.00 53.33 473.00 60.00 Z"/>
</g>
<g fill="None" fill-opacity="0.0" stroke="#3E5CD0" stroke-opacity="0.86" stroke-width="0.3"><path d="
M 47.00 52.00 
C 32.43 53.96 16.46 51.74 5.00 42.00
C 1.69 61.15 24.90 65.82 39.00 66.00
C 38.71 60.02 45.39 57.07 47.00 52.00 Z"/>
</g>
<g fill="None" fill-opacity="0.0" stroke="#3D5DD1" stroke-opacity="0.93" stroke-width="0.3"><path d="
M 80.00 47.00 
C 53.63 42.72 33.60 68.94 42.69 92.31 C 51.79 115.67 83.38 118.97 99.08 101.08 C 114.78 83.19 103.51 50.82 80.00 47.00
M 76.00 66.00 
C 79.08 67.51 80.82 69.82 82.00 73.00
C 78.75 70.76 67.61 70.09 70.33 75.67 C 73.05 81.25 82.07 77.20 81.92 85.08 C 81.78 92.95 73.70 91.76 76.00 100.00
C 70.67 101.74 70.51 96.92 71.00 93.00
C 67.76 92.62 65.36 89.02 65.00 86.00
C 67.76 85.59 70.39 85.94 71.00 89.00
C 82.80 86.10 72.94 83.78 67.08 78.92 C 61.23 74.05 72.23 65.42 71.00 60.00
C 75.64 58.54 76.75 62.12 76.00 66.00 Z"/>
</g>
<g fill="None" fill-opacity="0.0" stroke="#3D5CD0" stroke-opacity="0.85" stroke-width="0.3"><path d="
M 37.00 70.00 
C 25.23 70.59 14.17 66.96 5.00 60.00
C 1.56 77.45 22.63 83.49 36.00 83.00
C 35.77 78.54 36.05 74.15 37.00 70.00 Z"/>
</g>
<g fill="None" fill-opacity="0.0" stroke="#000000" stroke-opacity="0.00" stroke-width="0.3"><path d="
M 76.00 66.00 
C 76.75 62.12 75.64 58.54 71.00 60.00
C 72.23 65.42 61.23 74.05 67.08 78.92 C 72.94 83.78 82.80 86.10 71.00 89.00
C 70.39 85.94 67.76 85.59 65.00 86.00
C 65.36 89.02 67.76 92.62 71.00 93.00
C 70.51 96.92 70.67 101.74 76.00 100.00
C 73.70 91.76 81.78 92.95 81.92 85.08 C 82.07 77.20 73.05 81.25 70.33 75.67 C 67.61 70.09 78.75 70.76 82.00 73.00
C 80.82 69.82 79.08 67.51 76.00 66.00 Z"/>
</g>
<g fill="None" fill-opacity="0.0" stroke="#3E5CD0" stroke-opacity="0.86" stroke-width="0.3"><path d="
M 37.00 88.00 
C 25.24 88.38 14.30 84.21 5.00 78.00
C 2.16 97.80 27.01 102.05 42.00 101.00
C 40.08 96.75 37.19 92.78 37.00 88.00 Z"/>
</g>
<g fill="#000000" fill-opacity="0.00" stroke="None">
<path d="
M 0.00 120.00 
L 575.00 120.00
L 575.00 0.00
L 0.00 0.00
L 0.00 120.00
M 51.00 12.00 
C 63.08 13.96 77.77 27.35 66.75 38.75 C 55.73 50.15 39.46 47.47 26.00 47.00 C 12.54 46.53 -1.65 31.49 8.75 20.75 C 19.16 10.02 36.92 9.71 51.00 12.00
M 173.00 52.00 
C 169.33 52.00 165.67 52.00 162.00 52.00
C 163.16 40.30 144.87 34.03 138.75 43.75 C 132.63 53.47 133.27 67.92 137.77 78.23 C 142.27 88.54 163.17 84.78 162.00 72.00
C 165.67 72.00 169.33 72.00 173.00 72.00
C 174.91 92.17 144.19 101.25 131.77 88.23 C 119.35 75.21 119.06 49.71 131.25 36.25 C 143.44 22.79 175.28 30.62 173.00 52.00
M 224.00 30.00 
C 244.12 34.17 248.11 68.01 236.75 83.75 C 225.38 99.48 194.69 95.46 191.02 72.98 C 187.36 50.49 196.17 24.24 224.00 30.00
M 275.00 31.00 
C 282.75 45.29 292.33 59.32 301.00 73.00
C 301.00 59.00 301.00 45.00 301.00 31.00
C 304.67 31.00 308.33 31.00 312.00 31.00
C 312.00 51.67 312.00 72.33 312.00 93.00
C 298.95 97.08 295.42 83.20 289.75 75.25 C 284.07 67.30 280.02 58.48 274.00 51.00
C 274.00 65.00 274.00 79.00 274.00 93.00
C 270.33 93.00 266.67 93.00 263.00 93.00
C 263.00 72.33 263.00 51.67 263.00 31.00
C 267.00 31.00 271.00 31.00 275.00 31.00
M 342.00 31.00 
C 347.10 45.88 351.26 61.66 357.00 76.00
C 362.78 61.62 367.57 46.12 372.00 31.00
C 376.33 31.00 380.67 31.00 385.00 31.00
C 377.93 51.73 369.90 72.18 363.00 93.00
C 359.00 93.00 355.00 93.00 351.00 93.00
C 344.58 72.09 336.58 51.59 329.00 31.00
C 333.33 31.00 337.67 31.00 342.00 31.00
M 443.00 31.00 
C 443.00 34.00 443.00 37.00 443.00 40.00
C 433.00 40.00 423.00 40.00 413.00 40.00
C 413.00 45.33 413.00 50.67 413.00 56.00
C 421.67 56.00 430.33 56.00 439.00 56.00
C 439.00 59.33 439.00 62.67 439.00 66.00
C 430.33 66.00 421.67 66.00 413.00 66.00
C 413.00 72.00 413.00 78.00 413.00 84.00
C 423.00 84.00 433.00 84.00 443.00 84.00
C 443.00 87.00 443.00 90.00 443.00 93.00
C 429.33 93.00 415.67 93.00 402.00 93.00
C 402.00 72.33 402.00 51.67 402.00 31.00
C 415.67 31.00 429.33 31.00 443.00 31.00
M 495.00 66.00 
C 498.90 75.24 504.65 83.83 509.00 93.00
C 492.27 98.12 490.37 79.15 484.00 69.00
C 480.33 69.00 476.67 69.00 473.00 69.00
C 473.00 77.00 473.00 85.00 473.00 93.00
C 469.00 93.00 465.00 93.00 461.00 93.00
C 461.00 72.33 461.00 51.67 461.00 31.00
C 473.66 31.98 490.83 27.62 500.75 36.25 C 510.67 44.88 506.87 62.37 495.00 66.00
M 569.00 31.00 
C 569.00 34.00 569.00 37.00 569.00 40.00
C 562.67 40.00 556.33 40.00 550.00 40.00
C 550.00 57.67 550.00 75.33 550.00 93.00
C 546.00 93.00 542.00 93.00 538.00 93.00
C 538.00 75.33 538.00 57.67 538.00 40.00
C 531.67 40.00 525.33 40.00 519.00 40.00
C 519.00 37.00 519.00 34.00 519.00 31.00
C 535.67 31.00 552.33 31.00 569.00 31.00
M 47.00 52.00 
C 45.39 57.07 38.71 60.02 39.00 66.00
C 24.90 65.82 1.69 61.15 5.00 42.00
C 16.46 51.74 32.43 53.96 47.00 52.00
M 80.00 47.00 
C 103.51 50.82 114.78 83.19 99.08 101.08 C 83.38 118.97 51.79 115.67 42.69 92.31 C 33.60 68.94 53.63 42.72 80.00 47.00
M 37.00 70.00 
C 36.05 74.15 35.77 78.54 36.00 83.00
C 22.63 83.49 1.56 77.45 5.00 60.00
C 14.17 66.96 25.23 70.59 37.00 70.00
M 37.00 88.00 
C 37.19 92.78 40.08 96.75 42.00 101.00
C 27.01 102.05 2.16 97.80 5.00 78.00
C 14.30 84.21 25.24 88.38 37.00 88.00 Z"/>
</g>
<g fill="#3D5DD1" fill-opacity="0.95" stroke="None">
<path d="
M 51.00 12.00 
C 36.92 9.71 19.16 10.02 8.75 20.75 C -1.65 31.49 12.54 46.53 26.00 47.00 C 39.46 47.47 55.73 50.15 66.75 38.75 C 77.77 27.35 63.08 13.96 51.00 12.00 Z"/>
</g>
<g fill="#3E5DD0" fill-opacity="0.90" stroke="None">
<path d="
M 173.00 52.00 
C 175.28 30.62 143.44 22.79 131.25 36.25 C 119.06 49.71 119.35 75.21 131.77 88.23 C 144.19 101.25 174.91 92.17 173.00 72.00
C 169.33 72.00 165.67 72.00 162.00 72.00
C 163.17 84.78 142.27 88.54 137.77 78.23 C 133.27 67.92 132.63 53.47 138.75 43.75 C 144.87 34.03 163.16 40.30 162.00 52.00
C 165.67 52.00 169.33 52.00 173.00 52.00 Z"/>
</g>
<g fill="#3E5DD0" fill-opacity="0.91" stroke="None">
<path d="
M 224.00 30.00 
C 196.17 24.24 187.36 50.49 191.02 72.98 C 194.69 95.46 225.38 99.48 236.75 83.75 C 248.11 68.01 244.12 34.17 224.00 30.00
M 219.00 39.00 
C 238.19 42.27 234.57 87.54 214.00 84.00 C 193.43 80.46 198.27 35.47 219.00 39.00 Z"/>
</g>
<g fill="#3E5DD1" fill-opacity="0.95" stroke="None">
<path d="
M 275.00 31.00 
C 271.00 31.00 267.00 31.00 263.00 31.00
C 263.00 51.67 263.00 72.33 263.00 93.00
C 266.67 93.00 270.33 93.00 274.00 93.00
C 274.00 79.00 274.00 65.00 274.00 51.00
C 280.02 58.48 284.07 67.30 289.75 75.25 C 295.42 83.20 298.95 97.08 312.00 93.00
C 312.00 72.33 312.00 51.67 312.00 31.00
C 308.33 31.00 304.67 31.00 301.00 31.00
C 301.00 45.00 301.00 59.00 301.00 73.00
C 292.33 59.32 282.75 45.29 275.00 31.00 Z"/>
</g>
<g fill="#3E5DD0" fill-opacity="0.92" stroke="None">
<path d="
M 342.00 31.00 
C 337.67 31.00 333.33 31.00 329.00 31.00
C 336.58 51.59 344.58 72.09 351.00 93.00
C 355.00 93.00 359.00 93.00 363.00 93.00
C 369.90 72.18 377.93 51.73 385.00 31.00
C 380.67 31.00 376.33 31.00 372.00 31.00
C 367.57 46.12 362.78 61.62 357.00 76.00
C 351.26 61.66 347.10 45.88 342.00 31.00 Z"/>
</g>
<g fill="#3E5DD1" fill-opacity="0.95" stroke="None">
<path d="
M 443.00 31.00 
C 429.33 31.00 415.67 31.00 402.00 31.00
C 402.00 51.67 402.00 72.33 402.00 93.00
C 415.67 93.00 429.33 93.00 443.00 93.00
C 443.00 90.00 443.00 87.00 443.00 84.00
C 433.00 84.00 423.00 84.00 413.00 84.00
C 413.00 78.00 413.00 72.00 413.00 66.00
C 421.67 66.00 430.33 66.00 439.00 66.00
C 439.00 62.67 439.00 59.33 439.00 56.00
C 430.33 56.00 421.67 56.00 413.00 56.00
C 413.00 50.67 413.00 45.33 413.00 40.00
C 423.00 40.00 433.00 40.00 443.00 40.00
C 443.00 37.00 443.00 34.00 443.00 31.00 Z"/>
</g>
<g fill="#3E5DD0" fill-opacity="0.92" stroke="None">
<path d="
M 495.00 66.00 
C 506.87 62.37 510.67 44.88 500.75 36.25 C 490.83 27.62 473.66 31.98 461.00 31.00
C 461.00 51.67 461.00 72.33 461.00 93.00
C 465.00 93.00 469.00 93.00 473.00 93.00
C 473.00 85.00 473.00 77.00 473.00 69.00
C 476.67 69.00 480.33 69.00 484.00 69.00
C 490.37 79.15 492.27 98.12 509.00 93.00
C 504.65 83.83 498.90 75.24 495.00 66.00
M 473.00 60.00 
C 473.00 53.33 473.00 46.67 473.00 40.00
C 481.48 39.50 494.22 38.72 494.00 50.00 C 493.78 61.28 481.57 60.39 473.00 60.00 Z"/>
</g>
<g fill="#3E5CD0" fill-opacity="0.92" stroke="None">
<path d="
M 569.00 31.00 
C 552.33 31.00 535.67 31.00 519.00 31.00
C 519.00 34.00 519.00 37.00 519.00 40.00
C 525.33 40.00 531.67 40.00 538.00 40.00
C 538.00 57.67 538.00 75.33 538.00 93.00
C 542.00 93.00 546.00 93.00 550.00 93.00
C 550.00 75.33 550.00 57.67 550.00 40.00
C 556.33 40.00 562.67 40.00 569.00 40.00
C 569.00 37.00 569.00 34.00 569.00 31.00 Z"/>
</g>
<g fill="#000000" fill-opacity="0.00" stroke="None">
<path d="
M 219.00 39.00 
C 198.27 35.47 193.43 80.46 214.00 84.00 C 234.57 87.54 238.19 42.27 219.00 39.00 Z"/>
</g>
<g fill="#000000" fill-opacity="0.00" stroke="None">
<path d="
M 473.00 60.00 
C 481.57 60.39 493.78 61.28 494.00 50.00 C 494.22 38.72 481.48 39.50 473.00 40.00
C 473.00 46.67 473.00 53.33 473.00 60.00 Z"/>
</g>
<g fill="#3E5CD0" fill-opacity="0.86" stroke="None">
<path d="
M 47.00 52.00 
C 32.43 53.96 16.46 51.74 5.00 42.00
C 1.69 61.15 24.90 65.82 39.00 66.00
C 38.71 60.02 45.39 57.07 47.00 52.00 Z"/>
</g>
<g fill="#3D5DD1" fill-opacity="0.93" stroke="None">
<path d="
M 80.00 47.00 
C 53.63 42.72 33.60 68.94 42.69 92.31 C 51.79 115.67 83.38 118.97 99.08 101.08 C 114.78 83.19 103.51 50.82 80.00 47.00
M 76.00 66.00 
C 79.08 67.51 80.82 69.82 82.00 73.00
C 78.75 70.76 67.61 70.09 70.33 75.67 C 73.05 81.25 82.07 77.20 81.92 85.08 C 81.78 92.95 73.70 91.76 76.00 100.00
C 70.67 101.74 70.51 96.92 71.00 93.00
C 67.76 92.62 65.36 89.02 65.00 86.00
C 67.76 85.59 70.39 85.94 71.00 89.00
C 82.80 86.10 72.94 83.78 67.08 78.92 C 61.23 74.05 72.23 65.42 71.00 60.00
C 75.64 58.54 76.75 62.12 76.00 66.00 Z"/>
</g>
<g fill="#3D5CD0" fill-opacity="0.85" stroke="None">
<path d="
M 37.00 70.00 
C 25.23 70.59 14.17 66.96 5.00 60.00
C 1.56 77.45 22.63 83.49 36.00 83.00
C 35.77 78.54 36.05 74.15 37.00 70.00 Z"/>
</g>
<g fill="#000000" fill-opacity="0.00" stroke="None">
<path d="
M 76.00 66.00 
C 76.75 62.12 75.64 58.54 71.00 60.00
C 72.23 65.42 61.23 74.05 67.08 78.92 C 72.94 83.78 82.80 86.10 71.00 89.00
C 70.39 85.94 67.76 85.59 65.00 86.00
C 65.36 89.02 67.76 92.62 71.00 93.00
C 70.51 96.92 70.67 101.74 76.00 100.00
C 73.70 91.76 81.78 92.95 81.92 85.08 C 82.07 77.20 73.05 81.25 70.33 75.67 C 67.61 70.09 78.75 70.76 82.00 73.00
C 80.82 69.82 79.08 67.51 76.00 66.00 Z"/>
</g>
<g fill="#3E5CD0" fill-opacity="0.86" stroke="None">
<path d="
M 37.00 88.00 
C 25.24 88.38 14.30 84.21 5.00 78.00
C 2.16 97.80 27.01 102.05 42.00 101.00
C 40.08 96.75 37.19 92.78 37.00 88.00 Z"/>
</g>
</svg>